|One.Way.Passage(1932).xvid-RC |
---------------------------
 Title................................: One Way Passage
 International title(s)...............: One Way Passage
 Director.............................: Tay Garnett
 Release year.........................: 1932
 Language.............................: English
 Runtime..............................: 1h 7mn
 Genre................................: Drama | Romance 
 Color................................: No
 IMDb rating..........................: 8.2
 Link 1...............................:  
http://www.imdb.com/title/tt0023305/

 Subtitles............................: No

-------------------
| Video Attribute |
-------------------
Format                           : MPEG-4 Visual
Format profile                   : AdvancedSimple@L5
Format settings, BVOP            : Yes
Format settings, QPel            : No
Format settings, GMC             : No warppoints
Format settings, Matrix          : Default (MPEG)
Codec ID                         : XVID
Codec ID/Hint                    : XviD
Duration                         : 1h 7mn
Bit rate                         : 949 Kbps
Width                            : 720 pixels
Height                           : 480 pixels
Display aspect ratio             : 4:3
Frame rate                       : 25.000 fps
Standard                         : NTSC
Resolution                       : 24 bits
Colorimetry                      : 4:2:0
Scan type                        : Progressive
Bits/(Pixel*Frame)               : 0.110
Stream size                      : 458 MiB (82%)
Writing library                  : XviD 1.2.1 (UTC 2008-12-04)

-------------------
| Audio Attribute |
-------------------
Format                           : MPEG Audio
Format version                   : Version 1
Format profile                   : Layer 3
Codec ID                         : 55
Codec ID/Hint                    : MP3
Duration                         : 1h 7mn
Bit rate mode                    : Constant
Bit rate                         : 192 Kbps
Channel(s)                       : 2 channels
Sampling rate                    : 48.0 KHz
Resolution                       : 16 bits
Video delay                      : 40ms
Stream size                      : 92.6 MiB (17%)
Alignment                        : Aligned on interleaves
Interleave, duration             : 24 ms (0.60 video frame)
Interleave, preload duration     : 504 ms


--------------------
| Post Information |
--------------------
 Posted by............................: R.C
 Date of post (d.m.y).................: 28.3.2010


----------------
| Plot summary |
----------------
A terminally ill woman and a debonair murderer facing execution meet and fall in love on a trans-Pacific crossing, each without knowing the other's secret

----------------
| Release note |
----------------
Cast

William Powell ... Dan
Kay Francis ... Joan
Aline MacMahon ... Betty
Frank McHugh ... Skippy
Warren Hymer ... Steve
Frederick Burton ... The Doctor

---------------
| Ripper note |
---------------
Enjoy and Seed